<svg width="14" height="11" viewBox="0 0 14 11" fill="none" xmlns="http://www.w3.org/2000/svg">
<path d="M5.11539 11C4.99572 10.9996 4.87741 10.9734 4.7678 10.9232C4.6582 10.8729 4.55965 10.7996 4.47827 10.7077L0.236577 5.98583C0.0780167 5.809 -0.00692349 5.5735 0.000441987 5.33113C0.004089 5.21113 0.030288 5.09305 0.0775429 4.98363C0.124798 4.87422 0.192183 4.77562 0.275852 4.69346C0.35952 4.61131 0.457834 4.5472 0.565178 4.5048C0.672523 4.4624 0.786797 4.44254 0.901475 4.44636C1.13308 4.45407 1.35227 4.55774 1.51083 4.73456L5.10667 8.74408L12.4467 0.341453C12.5212 0.244387 12.6139 0.164281 12.719 0.106055C12.8242 0.0478291 12.9396 0.0127129 13.0582 0.00286323C13.1768 -0.00698643 13.296 0.00863849 13.4086 0.0487781C13.5212 0.0889177 13.6248 0.152724 13.713 0.23628C13.8012 0.319835 13.8721 0.421374 13.9215 0.534661C13.9708 0.647948 13.9974 0.770591 13.9998 0.895057C14.0022 1.01952 13.9802 1.14318 13.9353 1.25845C13.8903 1.37371 13.8233 1.47813 13.7384 1.56531L5.76125 10.6986C5.68064 10.7921 5.58243 10.8671 5.47279 10.919C5.36315 10.9709 5.24444 10.9984 5.12412 11H5.11539Z" fill="white"/>
</svg>
